<?xml version="1.0" encoding="UTF-8" standalone="no"?>
<!-- Created with Inkscape (http://www.inkscape.org/) -->

<svg
   width="55.858528mm"
   height="8.4137268mm"
   viewBox="0 0 55.858528 8.4137268"
   version="1.1"
   id="svg5"
   inkscape:version="1.1.2 (08b2f3d93c, 2022-04-05)"
   sodipodi:docname="theticketpost_horizontal_white.svg"
   xmlns:inkscape="http://www.inkscape.org/namespaces/inkscape"
   xmlns:sodipodi="http://sodipodi.sourceforge.net/DTD/sodipodi-0.dtd"
   xmlns="http://www.w3.org/2000/svg"
   xmlns:svg="http://www.w3.org/2000/svg">
  <sodipodi:namedview
     id="namedview7"
     pagecolor="#ffffff"
     bordercolor="#666666"
     borderopacity="1.0"
     inkscape:pageshadow="2"
     inkscape:pageopacity="0.0"
     inkscape:pagecheckerboard="0"
     inkscape:document-units="mm"
     showgrid="false"
     inkscape:zoom="2.2601823"
     inkscape:cx="212.15103"
     inkscape:cy="104.41636"
     inkscape:window-width="2560"
     inkscape:window-height="1043"
     inkscape:window-x="0"
     inkscape:window-y="0"
     inkscape:window-maximized="1"
     inkscape:current-layer="text2102" />
  <defs
     id="defs2" />
  <g
     inkscape:label="Capa 1"
     inkscape:groupmode="layer"
     id="layer1"
     transform="translate(-26.078916,-85.362515)">
    <g
       aria-label="TheTicketPost"
       id="text2102"
       style="font-size:10.5833px;line-height:1.25;font-family:'Old London';-inkscape-font-specification:'Old London';letter-spacing:0px;word-spacing:0px;fill:#43ffff;fill-opacity:1;stroke-width:0.264583">
      <path
         d="m 32.629979,85.373095 -0.0635,-0.01058 q -0.338666,0.560915 -1.02658,0.560915 -0.349249,0 -0.825498,-0.137583 -0.497415,-0.137583 -0.793747,-0.222249 -0.550332,-0.137583 -1.291163,-0.137583 -2.233076,0 -2.550575,1.947327 h 0.04233 q 0.412749,-0.571498 0.761998,-0.772581 0.402165,-0.222249 0.888997,-0.201083 l 0.645581,0.03175 q -0.359832,0.275166 -0.634998,0.529165 -0.275165,0.243416 -0.455081,0.476249 -0.486832,0.582081 -0.677332,1.312329 -0.116416,0.444498 -0.116416,0.804331 0,0.89958 0.518582,1.619244 0.89958,1.269996 2.688158,1.269996 0.455082,0 0.86783,-0.105833 1.460496,-0.370415 1.979077,-2.222492 l -0.05292,-0.03175 q -0.698498,1.05833 -1.809744,1.407578 v -4.656651 l 0.126999,0.01058 q 0.709081,0.0635 1.238246,-0.317499 0.539749,-0.391582 0.539749,-1.15358 z m -2.137827,6.159481 -0.137583,0.03175 q -0.99483,0 -1.703911,-0.529165 0.645581,-0.592665 0.857247,-0.963081 0.296333,-0.497415 0.296333,-1.227662 v -2.158994 l 0.687914,0.137583 z m -1.725078,-1.523995 q 0,0.539748 -0.349249,0.86783 -0.86783,-0.836081 -0.86783,-1.95791 0,-1.333496 1.05833,-2.455326 l 0.158749,0.04233 z"
         style="fill:#ffffff;fill-opacity:1"
         id="path14862" />
      <path
         d="m 36.789202,91.236243 v -2.582325 q 0,-0.772581 -0.698497,-1.238246 l -1.481662,1.09008 v -1.873244 q 0,-0.571498 0.455082,-0.96308 -0.550332,0 -1.015997,0.529165 l -0.15875,0.01058 Q 33.624796,86.00809 33.233214,85.859924 l -0.02117,0.02117 q 0.380999,0.349249 0.380999,1.05833 v 0.624414 h -0.539748 v 0.518582 h 0.518581 v 3.312573 l -0.306915,0.359832 0.793747,0.645581 0.804331,-0.698498 -0.275166,-0.306915 v -2.614075 l 0.836081,-0.624415 q 0.338665,0.211666 0.402165,0.497415 v 2.963324 q 0,0.761998 -0.560915,1.174746 -0.148166,0.105833 -0.476248,0.254 -0.317499,0.158749 -0.836081,0.359832 l 0.03175,0.0635 q 1.100663,-0.211665 1.820328,-0.687914 0.984246,-0.613831 0.984246,-1.545162 z"
         style="fill:#ffffff;fill-opacity:1"
         id="path14864" />
      <path
         d="m 40.366356,88.759751 -1.365245,-1.365245 q -0.349249,0.243415 -0.709081,0.455081 -0.349249,0.211666 -0.719665,0.380999 v 2.825741 q 0,0.465665 -0.296332,0.772581 0.751414,0.137583 1.460495,0.529165 l 0.920747,-0.645581 q 0.15875,-0.116417 0.296333,-0.211666 0.148166,-0.09525 0.285749,-0.179916 l -0.116416,-0.127 -0.698498,0.444499 -0.888997,-0.391582 v -1.100664 q 0.666748,-0.571498 1.83091,-1.386412 z M 39.530276,89.109 38.524862,89.902748 V 88.08242 Z"
         style="fill:#ffffff;fill-opacity:1"
         id="path14866" />
      <path
         d="m 47.277234,85.373095 -0.0635,-0.01058 q -0.338666,0.560915 -1.02658,0.560915 -0.349249,0 -0.825498,-0.137583 -0.497415,-0.137583 -0.793747,-0.222249 -0.550332,-0.137583 -1.291163,-0.137583 -2.233076,0 -2.550575,1.947327 h 0.04233 q 0.412749,-0.571498 0.761998,-0.772581 0.402165,-0.222249 0.888997,-0.201083 l 0.645581,0.03175 q -0.359832,0.275166 -0.634998,0.529165 -0.275165,0.243416 -0.455082,0.476249 -0.486831,0.582081 -0.677331,1.312329 -0.116416,0.444498 -0.116416,0.804331 0,0.89958 0.518582,1.619244 0.89958,1.269996 2.688158,1.269996 0.455082,0 0.86783,-0.105833 1.460496,-0.370415 1.979077,-2.222492 l -0.05292,-0.03175 q -0.698498,1.05833 -1.809744,1.407578 v -4.656651 l 0.126999,0.01058 q 0.709081,0.0635 1.238246,-0.317499 0.539749,-0.391582 0.539749,-1.15358 z m -2.137827,6.159481 -0.137583,0.03175 q -0.99483,0 -1.703911,-0.529165 0.645581,-0.592665 0.857247,-0.963081 0.296333,-0.497415 0.296333,-1.227662 v -2.158994 l 0.687914,0.137583 z m -1.725078,-1.523995 q 0,0.539748 -0.349249,0.86783 -0.86783,-0.836081 -0.86783,-1.95791 0,-1.333496 1.05833,-2.455326 l 0.158749,0.04233 z"
         style="fill:#ffffff;fill-opacity:1"
         id="path14868" />
      <path
         d="m 49.266881,85.83876 h -0.783164 l -0.253999,1.079497 h 0.137583 z m 0.275166,5.767899 -0.105833,-0.09525 -0.190499,0.127 q -0.243416,-0.127 -0.296333,-0.338666 v -2.931574 l 0.264583,-0.296332 -0.814914,-0.677331 -0.783164,0.645581 0.306915,0.328082 v 2.762241 l -0.01058,0.1905 q -0.05292,0.687914 0.666748,1.068913 z"
         style="fill:#ffffff;fill-opacity:1"
         id="path14870" />
      <path
         d="m 52.685274,91.416159 -0.105833,-0.116416 -0.455082,0.338666 -0.931331,-0.465666 v -3.005657 l 0.952497,0.539749 0.455082,-0.645582 -1.068913,-0.666747 q -0.296332,0.264582 -0.624415,0.476248 -0.317499,0.211666 -0.677331,0.359832 v 2.698742 q 0,0.497415 -0.285749,0.751414 0.698498,0.148166 1.460495,0.677331 0.317499,-0.232833 0.634998,-0.465665 0.317499,-0.232833 0.645582,-0.476249 z"
         style="fill:#ffffff;fill-opacity:1"
         id="path14872" />
      <path
         d="m 57.416002,91.606659 -0.126999,-0.137583 -0.201083,0.105833 q -0.179916,-0.243416 -0.275166,-0.719665 -0.0635,-0.296332 -0.116416,-0.486831 -0.04233,-0.201083 -0.08467,-0.285749 -0.169333,-0.455082 -0.592665,-0.761998 0.338665,-0.338666 0.582081,-0.560915 0.243416,-0.222249 0.391582,-0.338665 l -0.96308,-1.015997 -1.375829,1.206496 v -1.979077 q 0,-0.645581 0.497415,-0.952497 -0.550331,0 -1.02658,0.518582 l -0.148166,0.01058 q -0.285749,-0.232833 -0.687914,-0.328082 0.370415,0.370415 0.370415,0.719664 v 0.941914 h -0.539748 v 0.529165 h 0.539748 v 2.857491 q 0,0.497415 -0.264582,0.761997 0.624414,0.1905 1.534578,0.698498 l 1.015997,-1.068913 q 0.116416,0.751414 0.507998,1.037163 z m -1.280579,-2.719908 -1.492245,1.280579 v -1.217079 l 0.836081,-0.761998 z m -0.243416,2.137826 -0.613831,0.634998 -0.634998,-0.328082 v -0.878414 l 0.624415,-0.497415 q 0.550331,0.465665 0.624414,1.068913 z"
         style="fill:#ffffff;fill-opacity:1"
         id="path14874" />
      <path
         d="m 60.90848,88.759751 -1.365245,-1.365245 q -0.349249,0.243415 -0.709081,0.455081 -0.349249,0.211666 -0.719665,0.380999 v 2.825741 q 0,0.465665 -0.296332,0.772581 0.751414,0.137583 1.460495,0.529165 l 0.920747,-0.645581 q 0.15875,-0.116417 0.296333,-0.211666 0.148166,-0.09525 0.285749,-0.179916 l -0.116417,-0.127 -0.698497,0.444499 -0.888998,-0.391582 v -1.100664 q 0.666748,-0.571498 1.830911,-1.386412 z M 60.0724,89.109 59.066986,89.902748 V 88.08242 Z"
         style="fill:#ffffff;fill-opacity:1"
         id="path14876" />
      <path
         d="m 63.649535,88.08242 v -0.539748 h -1.079496 l -0.01058,-1.344079 -1.375829,1.725077 -0.01058,0.148167 h 0.370416 v 2.730491 q 0,0.465665 -0.285749,0.761998 0.582081,0.201082 1.333495,0.80433 l 0.952497,-0.825497 -0.116416,-0.148166 -0.296332,0.232832 -0.560915,-0.465665 v -3.07974 z"
         style="fill:#ffffff;fill-opacity:1"
         id="path14878" />
      <path
         d="m 70.729759,91.183327 v -2.952741 q 0,-1.037163 -0.370415,-1.555745 -0.433916,-0.582081 -1.460496,-1.269996 l -1.132413,0.772581 v -0.783164 h -0.243416 v 0.952497 l -0.518581,0.306916 q -0.05292,-0.571499 -0.380999,-0.899581 -0.317499,-0.338666 -0.867831,-0.338666 -0.687914,0 -1.344079,0.529165 v 0.137583 q 0.380999,-0.116416 0.687915,-0.116416 0.211666,0 0.433915,0.08467 0.423332,0.201083 0.412749,0.910164 l -0.01058,0.529165 -1.725077,1.195913 q 0.740831,0.423332 1.142996,0.899581 0.455082,0.550331 0.560915,1.322912 -1.259413,0.391582 -1.894411,1.312329 l 0.0635,0.08467 q 1.047747,-0.412749 1.852077,-0.412749 l 0.01058,1.883827 0.89958,-0.03175 0.910164,0.03175 0.01058,-1.767411 q 0.677331,0.127 1.428746,0.433915 z m -1.153579,-3.14324 q -0.370416,0.370415 -0.920748,0.370415 -0.571498,0 -0.89958,-0.391582 v -1.576911 l 0.169333,-0.127 q 0.687914,0 1.164163,0.518582 0.486832,0.497415 0.486832,1.206496 z m -0.01058,1.629828 q -0.497415,-0.222249 -0.96308,-0.222249 -0.444499,0 -0.836081,0.222249 v -1.333496 q 0.402166,0.243416 0.867831,0.243416 0.465665,0 0.93133,-0.243416 z m 0.01058,0.275166 -0.01058,1.428745 q -0.232832,-0.105833 -0.465665,-0.179916 -0.222249,-0.08467 -0.444499,-0.148166 -0.07408,-0.02117 -0.306915,-0.07408 -0.22225,-0.0635 -0.592665,-0.148166 v -0.941914 q 0.402165,-0.264583 0.867831,-0.264583 0.518581,0 0.952497,0.328083 z m -3.651239,-1.005414 -0.825497,-0.677331 0.825497,-0.529165 z m 1.598078,4.550819 h -0.465665 v -6.625145 l 0.465665,-0.275166 z"
         style="fill:#ffffff;fill-opacity:1"
         id="path14880" />
      <path
         d="m 74.634978,91.585492 v -3.450156 q -0.687915,-0.09525 -1.682745,-0.74083 -0.656164,0.613831 -1.502828,0.846663 v 2.508242 q 0,0.582082 -0.285749,0.814915 1.068913,0.222249 1.904994,0.83608 0.634998,-0.539748 1.566328,-0.814914 z m -0.99483,-0.02117 q -0.1905,-0.05292 -0.465665,-0.15875 -0.201083,-0.07408 -0.391582,-0.148166 -0.179917,-0.07408 -0.359833,-0.148166 v -2.920991 l 1.21708,0.465665 z"
         style="fill:#ffffff;fill-opacity:1"
         id="path14882" />
      <path
         d="m 79.132873,87.11934 q 0,-0.391582 -0.317499,-0.391582 -0.253999,0 -0.253999,0.169332 l 0.05292,0.09525 q 0.232833,0.296333 0.232833,0.402166 0,0.148166 -0.127,0.264582 -0.126999,0.105833 -0.275165,0.105833 l -0.275166,0.03175 q -0.465665,0 -1.354662,-0.433915 -0.592665,0.560914 -1.301746,0.878413 v 1.629829 l 1.015996,0.560914 -1.259412,1.799161 0.137583,0.09525 q 0.571498,-0.243416 1.068913,-0.243416 0.518582,0 1.068913,0.275166 0.222249,-0.148166 0.380999,-0.243416 0.158749,-0.105833 0.243416,-0.158749 0.328082,-0.201083 0.687914,-0.317499 v -1.947327 l -0.99483,-0.613832 0.96308,-1.301746 q 0.306916,-0.423332 0.306916,-0.656164 z m -1.02658,1.259412 -1.02658,1.354663 -0.634998,-0.328083 0.01058,-1.217079 q 0.571499,0.232833 1.05833,0.232833 0.169333,0 0.317499,-0.01058 0.148166,-0.01058 0.275166,-0.03175 z m -0.127,1.767411 -0.01058,1.407579 q -0.592665,-0.285749 -1.142996,-0.285749 -0.402166,0 -0.687915,0.0635 l 1.174747,-1.523995 z"
         style="fill:#ffffff;fill-opacity:1"
         id="path14884" />
      <path
         d="m 81.937446,88.08242 v -0.539748 h -1.079497 l -0.01058,-1.344079 -1.375829,1.725077 -0.01058,0.148167 h 0.370415 v 2.730491 q 0,0.465665 -0.285749,0.761998 0.582082,0.201082 1.333496,0.80433 l 0.952497,-0.825497 -0.116416,-0.148166 -0.296333,0.232832 -0.560915,-0.465665 v -3.07974 z"
         style="fill:#ffffff;fill-opacity:1"
         id="path14886" />
    </g>
  </g>
</svg>
